<?xml version="1.0" encoding="UTF-8" standalone="no"?><!DOCTYPE svg PUBLIC "-//W3C//DTD SVG 1.1//EN" "http://www.w3.org/Graphics/SVG/1.1/DTD/svg11.dtd"><svg width="100%" height="100%" viewBox="0 0 600 600" version="1.1" xmlns="http://www.w3.org/2000/svg" xmlns:xlink="http://www.w3.org/1999/xlink" xml:space="preserve" xmlns:serif="http://www.serif.com/" style="fill-rule:evenodd;clip-rule:evenodd;stroke-linejoin:round;stroke-miterlimit:2;"><g><g><path d="M161.571,519.405c-6.358,-6.358 -6.359,-16.684 0,-23.043l230.77,-230.77c6.359,-6.359 16.686,-6.359 23.044,-0.001l23.044,23.044c6.36,6.36 6.358,16.685 -0.001,23.044l-230.77,230.77c-6.359,6.359 -16.683,6.359 -23.043,-0l-23.044,-23.044Z" style="fill:#303854;"/></g><g><path d="M184.614,57.552c6.359,-6.359 16.685,-6.36 23.044,-0.001l230.77,230.77c6.359,6.359 6.359,16.686 0,23.044l-23.043,23.044c-6.36,6.36 -16.685,6.358 -23.044,-0.001l-230.77,-230.77c-6.359,-6.359 -6.36,-16.683 -0,-23.043l23.043,-23.043Z" style="fill:#303854;"/></g></g></svg>